<svg id="svg" version="1.1" xmlns="http://www.w3.org/2000/svg" xmlns:xlink="http://www.w3.org/1999/xlink" width="400" height="400" viewBox="0, 0, 400,400"><g id="svgg"><path id="path0" d="M186.361 37.392 C 177.331 42.643,169.946 47.063,169.949 47.214 C 169.951 47.365,178.172 52.186,188.217 57.927 C 198.263 63.668,219.689 76.001,235.832 85.334 L 265.182 102.303 265.276 138.172 L 265.370 174.041 282.037 164.473 L 298.704 154.906 298.798 118.801 L 298.893 82.697 251.354 55.237 C 225.208 40.134,203.582 27.793,203.296 27.811 C 203.011 27.829,195.390 32.141,186.361 37.392 M195.114 105.546 C 179.638 108.810,167.388 120.363,163.484 135.379 C 162.429 139.435,161.843 148.326,162.474 150.709 L 162.809 151.974 179.856 143.346 L 196.903 134.719 205.283 140.141 C 209.893 143.123,213.905 145.656,214.199 145.769 C 214.692 145.958,215.617 134.672,215.138 134.307 C 215.062 134.249,211.043 131.671,206.206 128.580 L 197.412 122.958 186.270 128.532 L 175.129 134.105 176.496 131.503 C 188.839 108.014,224.647 111.317,232.477 136.667 C 233.011 138.398,233.488 139.867,233.537 139.930 C 233.585 139.993,235.805 138.952,238.470 137.617 L 243.314 135.190 242.171 131.947 C 235.448 112.871,214.939 101.365,195.114 105.546 M141.571 209.116 L 141.667 228.669 146.111 231.215 C 148.556 232.615,151.306 234.180,152.222 234.692 C 153.139 235.205,154.047 235.775,154.241 235.960 C 155.522 237.184,155.556 236.704,155.556 217.293 C 155.556 202.651,155.449 198.155,155.093 197.701 C 154.703 197.206,150.087 194.428,143.052 190.454 L 141.475 189.563 141.571 209.116 " stroke="none" fill="#3f3635" fill-rule="evenodd"></path><path id="path1" d="M138.867 80.846 L 107.963 98.728 107.877 153.901 L 107.792 209.074 124.544 218.769 L 141.296 228.465 141.393 173.399 L 141.490 118.333 169.681 102.037 C 185.186 93.074,199.201 84.971,200.827 84.031 L 203.782 82.322 186.847 72.642 C 177.533 67.319,169.880 62.963,169.842 62.963 C 169.803 62.963,155.864 71.010,138.867 80.846 M239.815 141.745 C 237.574 142.866,229.949 146.761,222.871 150.402 L 210.001 157.022 201.095 151.301 C 195.782 147.888,192.134 145.763,192.052 146.031 C 191.976 146.279,191.817 148.923,191.698 151.907 L 191.482 157.333 200.463 163.089 L 209.444 168.846 220.308 163.280 C 226.283 160.219,231.237 157.780,231.317 157.860 C 231.898 158.441,227.133 165.409,224.397 167.981 C 207.586 183.779,179.371 175.767,173.870 153.633 L 173.254 151.154 168.333 153.606 L 163.413 156.059 163.960 157.937 C 166.295 165.946,172.991 175.115,179.836 179.677 C 207.921 198.397,244.451 179.197,244.513 145.685 C 244.525 139.105,244.738 139.283,239.815 141.745 M285.741 177.836 C 278.611 181.934,257.223 194.276,238.211 205.264 C 217.881 217.013,203.418 225.155,203.097 225.032 C 202.427 224.774,189.596 217.448,189.062 217.018 C 188.852 216.848,188.227 216.537,187.673 216.327 L 186.667 215.944 186.670 235.287 L 186.673 254.630 188.059 255.402 C 188.821 255.827,192.504 257.952,196.244 260.124 C 199.984 262.297,203.218 264.074,203.430 264.074 C 203.642 264.074,225.208 251.715,251.353 236.610 L 298.889 209.145 298.889 189.758 C 298.889 179.095,298.847 170.374,298.796 170.378 C 298.745 170.382,292.870 173.738,285.741 177.836 M140.674 279.081 C 132.097 281.831,131.624 297.290,140.000 301.081 C 147.179 304.331,154.024 299.493,154.365 290.926 C 154.722 281.979,148.480 276.579,140.674 279.081 M103.333 280.341 C 103.333 281.626,103.451 281.819,104.359 282.018 C 105.372 282.241,105.414 282.366,107.609 291.770 L 109.833 301.296 112.205 301.296 L 114.576 301.296 116.433 294.533 C 117.454 290.814,118.401 287.897,118.538 288.052 C 118.675 288.207,119.591 291.292,120.574 294.907 L 122.361 301.481 124.655 301.481 L 126.949 301.481 127.382 299.761 C 127.621 298.814,128.565 294.772,129.480 290.779 C 131.566 281.681,131.345 282.337,132.421 282.067 C 133.199 281.871,133.333 281.621,133.333 280.363 L 133.333 278.889 129.074 278.889 L 124.815 278.889 124.815 280.363 C 124.815 281.627,124.947 281.871,125.741 282.070 C 126.250 282.198,126.667 282.345,126.667 282.397 C 126.667 282.608,124.844 291.421,124.596 292.411 C 124.302 293.580,124.223 293.348,121.460 283.223 L 120.268 278.854 118.394 278.964 L 116.520 279.074 114.649 286.017 C 113.620 289.835,112.680 292.960,112.561 292.961 C 112.442 292.962,111.853 290.560,111.254 287.623 L 110.163 282.282 111.193 282.076 C 112.114 281.892,112.222 281.713,112.222 280.380 L 112.222 278.889 107.778 278.889 L 103.333 278.889 103.333 280.341 M155.627 280.463 C 155.729 281.871,155.848 282.049,156.759 282.154 L 157.778 282.271 157.778 290.180 L 157.778 298.089 156.667 298.333 C 155.663 298.554,155.556 298.717,155.556 300.029 L 155.556 301.481 160.370 301.481 L 165.185 301.481 165.185 300.041 C 165.185 298.688,165.106 298.586,163.889 298.358 L 162.593 298.115 162.593 295.312 L 162.593 292.509 165.217 292.657 C 168.426 292.839,169.238 293.592,169.251 296.401 C 169.268 300.138,170.488 301.481,173.865 301.481 L 175.926 301.481 175.926 300.088 C 175.926 298.998,175.744 298.615,175.093 298.329 C 174.399 298.024,174.227 297.590,174.065 295.741 C 173.837 293.135,173.313 292.054,171.845 291.161 L 170.775 290.510 171.824 289.890 C 173.958 288.629,174.630 285.520,173.368 282.741 C 171.939 279.594,169.791 278.894,161.553 278.891 L 155.513 278.889 155.627 280.463 M176.738 280.463 C 176.840 281.871,176.959 282.049,177.870 282.154 L 178.889 282.271 178.889 290.180 L 178.889 298.089 177.778 298.333 C 176.774 298.554,176.667 298.717,176.667 300.029 L 176.667 301.481 185.185 301.481 L 193.704 301.481 193.704 298.333 L 193.704 295.185 191.852 295.185 C 190.273 295.185,190.000 295.290,190.000 295.896 C 190.000 297.606,189.692 297.778,186.627 297.778 L 183.704 297.778 183.704 290.000 C 183.704 282.580,183.736 282.222,184.414 282.222 C 185.887 282.222,186.296 281.810,186.296 280.331 L 186.296 278.889 181.460 278.889 L 176.624 278.889 176.738 280.463 M194.516 280.463 C 194.618 281.871,194.737 282.049,195.648 282.154 L 196.667 282.271 196.667 290.219 L 196.667 298.167 195.556 298.389 C 194.550 298.590,194.444 298.748,194.444 300.046 L 194.444 301.481 201.019 301.473 C 211.803 301.460,214.273 299.317,214.244 290.000 C 214.217 281.165,211.477 278.933,200.627 278.905 L 194.402 278.889 194.516 280.463 M222.593 280.331 C 222.593 281.810,223.002 282.222,224.475 282.222 C 225.153 282.222,225.185 282.582,225.185 290.168 L 225.185 298.115 223.889 298.358 C 222.671 298.586,222.593 298.688,222.593 300.041 L 222.593 301.481 231.296 301.481 L 240.000 301.481 240.000 298.333 L 240.000 295.185 237.963 295.185 L 235.926 295.185 235.926 296.481 L 235.926 297.778 232.963 297.778 L 230.000 297.778 230.000 290.025 L 230.000 282.271 231.019 282.154 C 231.930 282.049,232.049 281.871,232.151 280.463 L 232.265 278.889 227.429 278.889 L 222.593 278.889 222.593 280.331 M240.370 280.331 C 240.370 281.810,240.780 282.222,242.253 282.222 C 242.931 282.222,242.963 282.582,242.963 290.168 L 242.963 298.115 241.667 298.358 C 240.449 298.586,240.370 298.688,240.370 300.041 L 240.370 301.481 245.185 301.481 L 250.000 301.481 250.000 300.046 C 250.000 298.748,249.894 298.590,248.889 298.389 L 247.778 298.167 247.778 290.241 L 247.778 282.315 248.889 282.093 C 249.903 281.890,250.000 281.740,250.000 280.380 L 250.000 278.889 245.185 278.889 L 240.370 278.889 240.370 280.331 M250.741 280.331 C 250.741 281.810,251.150 282.222,252.623 282.222 C 253.301 282.222,253.333 282.582,253.333 290.168 L 253.333 298.115 252.037 298.358 C 250.819 298.586,250.741 298.688,250.741 300.041 L 250.741 301.481 255.556 301.481 L 260.370 301.481 260.370 300.046 C 260.370 298.748,260.264 298.590,259.259 298.389 L 258.148 298.167 258.149 292.694 L 258.149 287.222 262.427 294.352 L 266.705 301.481 269.279 301.481 L 271.852 301.481 271.852 291.898 L 271.852 282.315 272.963 282.093 C 273.977 281.890,274.074 281.740,274.074 280.380 L 274.074 278.889 269.259 278.889 L 264.444 278.889 264.444 280.380 C 264.444 281.740,264.542 281.890,265.556 282.093 L 266.667 282.315 266.667 287.721 C 266.667 292.357,266.596 293.024,266.170 292.397 C 265.897 291.995,263.958 288.792,261.861 285.278 L 258.048 278.889 254.394 278.889 L 250.741 278.889 250.741 280.331 M274.444 280.331 C 274.444 281.810,274.854 282.222,276.327 282.222 C 277.005 282.222,277.037 282.582,277.037 290.168 L 277.037 298.115 275.741 298.358 C 274.523 298.586,274.444 298.688,274.444 300.041 L 274.444 301.481 279.259 301.481 L 284.074 301.481 284.074 300.046 C 284.074 298.748,283.968 298.590,282.963 298.389 L 281.852 298.167 281.852 295.194 L 281.852 292.222 282.907 292.222 C 283.821 292.222,284.245 292.646,286.058 295.370 C 287.472 297.495,287.972 298.519,287.595 298.519 C 287.191 298.519,287.037 298.927,287.037 300.000 L 287.037 301.481 291.667 301.481 L 296.296 301.481 296.296 300.000 C 296.296 298.712,296.187 298.518,295.463 298.513 C 294.189 298.504,293.910 298.221,290.757 293.727 L 287.819 289.539 290.551 285.932 C 292.700 283.095,293.525 282.276,294.419 282.098 C 295.462 281.889,295.556 281.747,295.556 280.380 L 295.556 278.889 290.926 278.889 L 286.296 278.889 286.296 280.370 C 286.296 281.440,286.451 281.852,286.852 281.852 C 287.692 281.852,287.553 282.169,285.348 285.278 C 282.546 289.228,281.852 289.215,281.852 285.210 C 281.852 282.280,281.855 282.271,282.870 282.154 C 283.782 282.049,283.901 281.871,284.003 280.463 L 284.117 278.889 279.281 278.889 L 274.444 278.889 274.444 280.331 M147.591 283.814 C 150.839 287.061,150.184 295.811,146.565 297.528 C 142.348 299.529,138.898 296.393,138.895 290.556 C 138.891 285.134,140.603 282.593,144.259 282.593 C 146.153 282.593,146.496 282.718,147.591 283.814 M168.147 283.538 C 170.489 285.880,168.973 288.478,165.081 288.791 L 162.593 288.990 162.593 285.748 L 162.593 282.506 165.008 282.660 C 166.765 282.772,167.620 283.011,168.147 283.538 M207.131 283.493 C 208.766 284.564,209.259 286.179,209.259 290.464 C 209.259 296.109,207.982 297.761,203.611 297.772 L 201.481 297.778 201.481 290.134 L 201.481 282.491 203.830 282.680 C 205.121 282.783,206.607 283.149,207.131 283.493 " stroke="none" fill="#f38414" fill-rule="evenodd"></path><path id="path2" d="M174.444 312.963 C 174.444 313.951,174.568 314.074,175.556 314.074 C 176.543 314.074,176.667 313.951,176.667 312.963 C 176.667 311.975,176.543 311.852,175.556 311.852 C 174.568 311.852,174.444 311.975,174.444 312.963 M192.963 312.593 C 192.963 313.086,193.210 313.333,193.704 313.333 C 194.413 313.333,194.444 313.580,194.444 319.074 C 194.444 324.568,194.413 324.815,193.704 324.815 C 193.210 324.815,192.963 325.062,192.963 325.556 C 192.963 326.226,193.210 326.296,195.556 326.296 C 197.901 326.296,198.148 326.226,198.148 325.556 C 198.148 325.062,197.901 324.815,197.407 324.815 C 196.695 324.815,196.667 324.568,196.667 318.333 L 196.667 311.852 194.815 311.852 C 193.210 311.852,192.963 311.951,192.963 312.593 M244.815 312.593 C 244.815 313.086,245.062 313.333,245.556 313.333 C 246.184 313.333,246.296 313.580,246.296 314.968 L 246.296 316.602 245.256 316.210 C 242.387 315.127,240.068 316.999,239.735 320.665 C 239.377 324.612,241.137 326.944,244.162 326.529 C 245.030 326.410,246.699 326.317,247.870 326.324 C 249.775 326.334,250.000 326.255,250.000 325.575 C 250.000 325.062,249.759 324.815,249.259 324.815 C 248.547 324.815,248.519 324.568,248.519 318.333 L 248.519 311.852 246.667 311.852 C 245.062 311.852,244.815 311.951,244.815 312.593 M254.444 312.963 C 254.444 313.951,254.568 314.074,255.556 314.074 C 256.543 314.074,256.667 313.951,256.667 312.963 C 256.667 311.975,256.543 311.852,255.556 311.852 C 254.568 311.852,254.444 311.975,254.444 312.963 M138.704 316.354 C 135.690 318.002,136.544 320.900,140.408 322.137 C 141.946 322.630,142.434 322.967,142.524 323.598 C 142.740 325.116,139.736 325.287,139.079 323.794 C 138.460 322.388,137.037 322.681,137.037 324.214 C 137.037 325.806,137.614 326.268,139.948 326.544 C 145.684 327.224,146.916 322.208,141.444 320.455 C 139.906 319.963,139.418 319.625,139.328 318.995 C 139.111 317.467,142.301 317.387,142.784 318.908 C 143.216 320.269,144.955 319.869,144.676 318.472 C 144.549 317.836,144.444 317.185,144.444 317.027 C 144.444 316.121,140.068 315.607,138.704 316.354 M150.333 316.770 C 146.619 319.262,147.964 326.074,152.265 326.559 C 155.567 326.931,157.407 325.047,157.407 321.296 C 157.407 316.751,153.801 314.443,150.333 316.770 M163.369 316.394 C 160.385 317.928,159.861 323.163,162.448 325.594 C 163.990 327.042,167.114 326.877,168.549 325.272 C 169.962 323.691,169.952 322.963,168.519 322.963 C 167.771 322.963,167.407 323.147,167.407 323.526 C 167.407 324.281,165.826 324.963,164.720 324.686 C 162.672 324.171,162.309 319.339,164.222 318.061 C 165.444 317.245,167.407 318.029,167.407 319.333 C 167.407 319.798,167.689 320.000,168.333 320.000 C 169.162 320.000,169.259 319.849,169.259 318.561 C 169.259 316.355,165.870 315.109,163.369 316.394 M172.963 316.852 C 172.963 317.531,173.160 317.778,173.704 317.778 C 174.392 317.778,174.444 318.025,174.444 321.296 C 174.444 324.568,174.392 324.815,173.704 324.815 C 173.210 324.815,172.963 325.062,172.963 325.556 C 172.963 326.226,173.210 326.296,175.556 326.296 C 177.901 326.296,178.148 326.226,178.148 325.556 C 178.148 325.062,177.901 324.815,177.407 324.815 C 176.708 324.815,176.667 324.568,176.667 320.370 L 176.667 315.926 174.815 315.926 C 173.086 315.926,172.963 315.988,172.963 316.852 M182.685 316.478 C 181.087 317.173,180.878 319.259,182.407 319.259 C 182.952 319.259,183.333 319.047,183.333 318.743 C 183.333 317.546,186.016 317.437,186.831 318.601 C 187.792 319.973,187.538 320.256,185.151 320.472 C 182.303 320.730,181.111 321.695,181.111 323.741 C 181.111 326.220,183.762 327.422,186.315 326.102 C 186.941 325.778,187.407 325.699,187.407 325.916 C 187.407 326.125,188.074 326.296,188.889 326.296 C 190.437 326.296,191.084 325.168,189.815 324.681 C 189.382 324.515,189.259 323.778,189.259 321.338 C 189.259 319.617,189.156 317.939,189.029 317.609 C 188.440 316.074,185.018 315.464,182.685 316.478 M207.407 316.852 C 207.407 317.531,207.605 317.778,208.148 317.778 C 208.837 317.778,208.889 318.025,208.889 321.296 C 208.889 324.568,208.837 324.815,208.148 324.815 C 207.654 324.815,207.407 325.062,207.407 325.556 C 207.407 326.226,207.654 326.296,210.000 326.296 C 212.346 326.296,212.593 326.226,212.593 325.556 C 212.593 325.062,212.346 324.815,211.852 324.815 C 210.860 324.815,210.725 319.328,211.693 318.360 C 212.384 317.669,213.747 317.599,214.370 318.222 C 215.216 319.067,214.957 324.815,214.074 324.815 C 213.580 324.815,213.333 325.062,213.333 325.556 C 213.333 326.226,213.580 326.296,215.926 326.296 C 218.272 326.296,218.519 326.226,218.519 325.556 C 218.519 325.062,218.272 324.815,217.778 324.815 C 216.901 324.815,216.686 320.806,217.471 319.083 C 218.090 317.725,219.568 317.436,220.433 318.504 C 221.477 319.793,221.427 324.815,220.370 324.815 C 219.877 324.815,219.630 325.062,219.630 325.556 C 219.630 326.226,219.877 326.296,222.222 326.296 C 224.568 326.296,224.815 326.226,224.815 325.556 C 224.815 325.062,224.568 324.815,224.074 324.815 C 223.407 324.815,223.333 324.567,223.331 322.315 C 223.327 316.803,220.784 314.222,217.727 316.627 C 216.852 317.315,216.819 317.315,215.969 316.627 C 215.005 315.846,213.310 315.714,212.158 316.331 C 211.611 316.623,211.290 316.623,210.997 316.331 C 210.110 315.443,207.407 315.836,207.407 316.852 M230.070 316.427 C 226.975 318.145,226.921 324.519,229.988 326.105 C 232.135 327.215,235.741 326.516,235.741 324.989 C 235.741 324.225,235.606 324.209,232.907 324.661 C 231.379 324.917,230.000 323.936,230.000 322.593 C 230.000 321.909,230.247 321.852,233.195 321.852 L 236.391 321.852 236.206 319.929 C 235.890 316.645,232.828 314.897,230.070 316.427 M252.963 316.852 C 252.963 317.531,253.160 317.778,253.704 317.778 C 254.392 317.778,254.444 318.025,254.444 321.296 C 254.444 324.568,254.392 324.815,253.704 324.815 C 253.210 324.815,252.963 325.062,252.963 325.556 C 252.963 326.226,253.210 326.296,255.556 326.296 C 257.901 326.296,258.148 326.226,258.148 325.556 C 258.148 325.062,257.901 324.815,257.407 324.815 C 256.708 324.815,256.667 324.568,256.667 320.370 L 256.667 315.926 254.815 315.926 C 253.086 315.926,252.963 315.988,252.963 316.852 M262.685 316.458 C 261.709 316.898,261.481 317.215,261.481 318.130 C 261.481 319.492,262.854 319.741,263.618 318.519 C 264.540 317.042,267.407 317.903,267.407 319.656 C 267.407 320.243,267.142 320.370,265.914 320.370 C 261.880 320.370,259.679 323.416,262.020 325.758 C 263.094 326.831,265.297 326.991,266.584 326.090 C 267.046 325.767,267.407 325.686,267.407 325.905 C 267.407 326.120,268.074 326.296,268.889 326.296 C 270.123 326.296,270.370 326.173,270.370 325.556 C 270.370 325.148,270.220 324.815,270.036 324.815 C 269.852 324.815,269.643 323.236,269.573 321.306 C 269.393 316.392,266.828 314.586,262.685 316.458 M154.444 318.519 C 156.204 320.278,155.171 324.815,153.012 324.815 C 151.397 324.815,150.556 323.610,150.556 321.296 C 150.556 318.181,152.627 316.701,154.444 318.519 M233.397 318.391 C 234.646 319.521,234.241 320.000,232.037 320.000 C 229.841 320.000,229.695 319.860,230.577 318.601 C 231.259 317.626,232.454 317.537,233.397 318.391 M245.619 318.391 C 246.536 319.221,246.580 323.146,245.683 324.138 C 244.027 325.968,242.037 324.557,242.037 321.550 C 242.037 318.292,243.796 316.741,245.619 318.391 M187.341 322.648 C 187.163 323.846,185.459 324.964,184.267 324.665 C 182.174 324.139,183.909 321.870,186.415 321.857 C 187.274 321.853,187.438 321.993,187.341 322.648 M267.407 322.566 C 267.407 324.136,264.859 325.388,263.807 324.336 C 262.700 323.229,264.064 321.929,266.389 321.875 C 267.156 321.858,267.407 322.028,267.407 322.566 " stroke="none" fill="#fcf4ec" fill-rule="evenodd"></path><path id="path3" d="M171.481 226.424 C 171.481 244.073,171.528 245.481,172.130 246.006 C 172.686 246.490,183.408 252.774,185.833 254.037 L 186.667 254.471 186.667 235.084 L 186.667 215.697 181.944 212.961 C 175.461 209.205,172.179 207.407,171.801 207.407 C 171.625 207.407,171.481 215.965,171.481 226.424 " stroke="none" fill="#aa783f" fill-rule="evenodd"></path><path id="path4" d="M155.370 217.060 L 155.370 236.567 161.092 239.857 C 164.239 241.667,167.770 243.661,168.939 244.287 C 170.109 244.914,171.367 245.656,171.736 245.936 C 172.310 246.372,172.340 246.371,171.944 245.927 C 171.279 245.180,171.267 207.407,171.933 207.407 C 172.181 207.407,169.306 205.644,165.544 203.488 C 161.782 201.333,157.954 199.116,157.037 198.561 L 155.370 197.553 155.370 217.060 " stroke="none" fill="#8c6c4c" fill-rule="evenodd"></path></g></svg>